<svg width="70" height="57" viewBox="0 0 70 57" fill="none" xmlns="http://www.w3.org/2000/svg">
<path d="M68.2964 22.3919C67.5477 22.3919 66.9414 23.0073 66.9414 23.7651V28.6592C66.9414 31.4676 64.6866 33.7528 61.9157 33.7528H54.1923C53.8328 33.7528 53.4886 33.897 53.2341 34.1545L43.8707 43.6448V35.1261C43.8707 34.3674 43.264 33.7528 42.5158 33.7528H23.1158C20.3449 33.7528 18.0901 31.468 18.0901 28.6592V7.88518C18.0901 5.0768 20.3449 2.79199 23.1158 2.79199H61.9157C64.6866 2.79199 66.9414 5.0768 66.9414 7.88518V12.7788C66.9414 13.5376 67.5477 14.1521 68.2964 14.1521C69.0442 14.1521 69.6514 13.5376 69.6514 12.7788V7.88518C69.6514 3.56232 66.1813 0.0454102 61.9157 0.0454102H23.1158C18.8502 0.0454102 15.3802 3.56232 15.3802 7.88518V25.5281H5.51802C2.6281 25.5281 0.276367 27.9108 0.276367 30.8406V43.4955C0.276367 46.4253 2.6281 48.808 5.51802 48.808H9.66215L16.3778 55.6148C16.6373 55.8778 16.9841 56.0173 17.3364 56.0173C17.5109 56.0173 17.6874 55.983 17.8547 55.9126C18.3611 55.7002 18.6914 55.1998 18.6914 54.644V48.808H29.1544C32.0447 48.808 34.396 46.4253 34.396 43.4955V36.4994H41.1608V46.96C41.1608 47.5158 41.4911 48.0162 41.9975 48.2286C42.1647 48.299 42.3409 48.3333 42.5158 48.3333C42.8685 48.3333 43.2148 48.1938 43.474 47.9308L54.7533 36.4994H61.9157C66.1813 36.4994 69.6514 32.9825 69.6514 28.6592V23.7651C69.6514 23.0073 69.0442 22.3919 68.2964 22.3919ZM31.6865 43.4955C31.6865 44.9108 30.5509 46.0614 29.1544 46.0614H17.3364C16.5878 46.0614 15.9814 46.6768 15.9814 47.4347V51.3288L11.1814 46.4639C10.9274 46.2064 10.5827 46.0614 10.2232 46.0614H5.51802C4.12197 46.0614 2.98633 44.9108 2.98633 43.4955V30.8406C2.98633 29.4257 4.12197 28.2747 5.51802 28.2747H15.3802V28.6592C15.3802 32.9825 18.8502 36.4994 23.1158 36.4994H31.6865V43.4955Z" fill="#031A6B"/>
</svg>
